<svg xmlns="http://www.w3.org/2000/svg" viewBox="0 0 200 200">
    <path fill="#375d90" d="M0 0h200.01v200.01H0z"/>
    <path d="M165.88 49.97q2.04 0 3.22-2.57 1.2-2.61 1.2-7.41 0-4.76-1.2-7.37-1.18-2.61-3.22-2.61t-3.25 2.6-1.2 7.38 1.2 7.4 3.25 2.58m7.86-9.98q0 7.63-2.49 11.71-1.89 3.3-5.37 3.3-3.51 0-5.4-3.3-2.5-4.08-2.5-11.71 0-7.79 2.5-11.68 1.89-3.33 5.4-3.33t5.37 3.33q2.5 3.9 2.5 11.72m2.6-14.1H188v4.99h-8.24v6.5h7.22v4.91h-7.18V54.2h-3.4zm-151.37-.61h32.4l58.84 104.47V25.32h28.76V175h-30.84L53.78 68.67V175H24.94Zm61.2-.38" fill="#fff"/>
</svg>