<?xml version="1.0" encoding="UTF-8" standalone="no"?>
<svg width="200" height="200" viewBox="0 0 200 200" xmlns="http://www.w3.org/2000/svg">
  <g id="g1" transform="scale(3.7795277)">
    <rect
       style="fill:#ffffff"
       width="52.916664"
       height="52.916664"
       x="0"
       y="0"
       id="rect-bg" />
    <path
       style="fill:#375d90"
       d="m 5.0653238,1.3229166 c -2.0732843,0 -3.7424072,1.6691229 -3.7424072,3.7424072 V 47.851342 c 0,2.073284 1.6691229,3.742407 3.7424072,3.742407 H 47.851342 c 2.073284,0 3.742407,-1.669123 3.742407,-3.742407 V 11.90625 h -8.583455 c -1.107999,0 -1.999878,-0.891879 -1.999878,-1.9998781 0.01029,-2.8611011 -0.01366,-5.7223775 0,-8.5834553 z"
       id="rect-bg-main" />
    <rect
       style="fill:#ffffff;stroke-width:1.27561"
       width="6.614583"
       height="6.614583"
       x="41.671875"
       y="39.6875"
       rx="1.2756172"
       id="rect-dot" />
    <path
       style="fill:#ffffff"
       d="M 6.6145832,6.695194 H 15.182043 L 30.752009,34.34478 V 6.695194 h 7.612574 v 39.606889 h -8.16959 L 14.227157,18.168832 V 46.302083 H 6.6145832 Z M 22.794617,6.6145832 Z"
       id="text-N" />
    <path
       style="stroke:#000000;stroke-width:0.316862"
       d="m 45.03604,9.1296756 q 0.513721,0 0.81409,-0.654216 0.303179,-0.6542145 0.303179,-1.8608756 0,-1.201819 -0.303179,-1.8560326 -0.300369,-0.6590605 -0.81409,-0.6590605 -0.51372,0 -0.819706,0.6542146 -0.305984,0.6542147 -0.305984,1.8608785 0,1.2066611 0.305984,1.8608756 0.305986,0.654216 0.819706,0.654216 z M 47.01793,6.614584 q 0,1.9238757 -0.626008,2.9463897 -0.468805,0.8335173 -1.355882,0.8335173 -0.887079,0 -1.355882,-0.8335173 -0.628816,-1.022514 -0.628816,-2.9463897 0,-1.962644 0.628816,-2.9463903 0.468803,-0.8335179 1.355882,-0.8335179 0.887077,0 1.355882,0.8335179 Q 47.01793,4.65194 47.01793,6.614584 Z M 45.03604,2.8346758 Z m 2.641583,0.2277637 h 2.933534 v 1.2551241 h -2.074528 v 1.6428046 h 1.816265 v 1.2405864 h -1.816265 v 2.9948494 h -0.859006 z"
       id="text-OF" />
  </g>
</svg>
