<svg viewBox="0 0 200 200" xmlns="http://www.w3.org/2000/svg">
    <g>
        <path style="fill:#375d90" d="m 0,0 h 200 v 0 200 0 H 0 v 0 z"/>
    </g>
    <g>
        <path style="fill:#ffffff;fill-opacity:0.466667" d="m 167.33203,0 c 0.0507,0.68355796 -0.0988,1.4500422 0.0707,2.0843826 4.94967,4.9491559 9.89949,9.8981604 14.84921,14.8472584 0,8.420573 0,16.841145 0,25.261718 -1.70951,1.553905 -1.50575,4.590794 0.39263,5.907486 1.81928,1.444628 4.80793,0.752649 5.79487,-1.352798 0.77146,-1.454884 0.47172,-3.385062 -0.71289,-4.529297 0,-9.184896 0,-18.369792 0,-27.554688 C 182.7539,9.6914062 177.78124,4.71875 172.80858,-0.25390625 172.73788,-0.7985828 172.9476,-1.6236549 172.70858,-2 c -1.79218,0 -3.58437,0 -5.37656,0 0,0.6666667 0,1.33333333 0,2 z" />
        <path style="fill:#ffffff;fill-opacity:0.466667" d="m 103.35938,61.318359 c -2.59089,-0.01639 -4.822272,2.476353 -4.509771,5.050782 -0.174033,0.492588 -0.789698,0.819009 -1.121761,1.252305 -1.456148,1.46083 -2.912403,2.921553 -4.368473,4.38246 v 15.140625 c 4.600346,4.600826 9.200505,9.201837 13.800785,13.802739 v 41.64648 c -9.117191,9.11719 -18.234379,18.23437 -27.351566,27.35156 V 198 h 5.476562 v -25.78711 c 9.118494,-9.11392 18.226524,-18.23836 27.351564,-27.3457 V 98.679688 C 108.03581,94.078776 103.4349,89.477865 98.833984,84.876953 V 74.269531 c 1.256506,-1.257161 2.513026,-2.514323 3.769536,-3.771484 2.51381,0.556439 5.20284,-1.391961 5.45185,-3.95665 0.41402,-2.53168 -1.66915,-5.077314 -4.22334,-5.209366 -0.15746,-0.0038 -0.31507,-0.02539 -0.47265,-0.01367 z m 0.17382,3.822266 c 0.94331,0.03232 1.00695,1.532535 0.076,1.649446 -0.89418,0.211633 -1.36784,-1.155916 -0.53885,-1.55179 0.14197,-0.07578 0.30262,-0.108616 0.46289,-0.09766 z"/>
        <path style="fill:#ffffff;fill-opacity:0.466667" d="m 95.39648,-2.0234375 c -0.97721,0.018869 -1.954426,0.037614 -2.931636,0.056641 -4.940104,4.9401042 -9.880209,9.8802084 -14.820313,14.8203125 0,5.134114 0,10.268229 0,15.402343 -1.652995,1.652995 -3.305989,3.30599 -4.958984,4.958985 -2.520211,-0.549769 -5.194547,1.423168 -5.4375,3.986328 -0.387599,2.555122 1.745644,5.113489 4.328387,5.18866 2.612353,0.234089 5.053491,-2.133886 4.902082,-4.75116 -0.207818,-0.676207 0.639372,-0.954436 0.958699,-1.433309 1.893975,-1.893975 3.78795,-3.78795 5.681926,-5.681925 0,-5.134766 0,-10.269532 0,-15.404297 5.746732,-5.7461064 11.493889,-11.4917892 17.240239,-17.2382812 -1.6543,0.031901 -3.3086,0.063802 -4.9629,0.095703 z M 71.919922,36.955078 c 0.942248,0.03556 1.007775,1.533481 0.07596,1.6514 -0.984997,0.229904 -1.37734,-1.361359 -0.396273,-1.616244 0.106123,-0.02578 0.210669,-0.04436 0.320313,-0.03516 z" />
        <path style="fill:#ffffff;fill-opacity:0.466667" d="M 102.04492,-1.4003906 C 96.881358,3.8592256 91.719039,9.1200641 86.554688,14.378906 v 26.529297 c 0.119522,0.560577 -0.180589,0.919732 -0.656441,1.219312 -1.937601,1.72986 -1.915463,5.084418 0.05085,6.783387 1.840308,1.793259 5.128174,1.557421 6.709104,-0.463636 1.62003,-1.871937 1.318929,-4.986189 -0.628906,-6.513672 V 16.636719 C 97.001951,11.664062 101.97461,6.6914063 106.94727,1.71875 V -2 h -4.31446 c -0.19596,0.1998698 -0.39192,0.3997396 -0.58789,0.5996094 z M 89.064453,44.650391 C 0,-2 0,-2 89.064453,44.650391 Z m 0.002,0.01758 c 0.934152,-0.0661 1.161275,1.401525 0.257813,1.630859 -0.87954,0.314035 -1.507012,-1.028395 -0.690073,-1.492729 0.10837,-0.09699 0.326426,-0.1586 0.43226,-0.13813 z"/>
        <path style="fill:#ffffff;fill-opacity:0.466667" d="m 109.16016,0 c -0.0945,0.68756952 0.28752,1.5724823 -0.42427,2.0043422 -4.45884,4.4588391 -8.917676,8.9176778 -13.376515,13.3765168 0,5.046875 0,10.09375 0,15.140625 1.534545,1.544225 3.071767,3.085786 4.607422,4.628907 -0.634806,2.444056 1.096563,5.145586 3.578123,5.599609 2.48863,0.575553 5.18056,-1.281748 5.51086,-3.815701 0.4823,-2.498646 -1.48377,-5.088922 -4.01086,-5.326877 -0.6476,0.05026 -1.16482,-0.08362 -1.5351,-0.659563 -0.89194,-0.896682 -1.78389,-1.793364 -2.67584,-2.690047 0,-3.536458 0,-7.072916 0,-10.609374 4.60092,-4.600912 9.20183,-9.2018234 13.80274,-13.8027349 0,-1.9485677 0,-3.89713539 0,-5.8457031 -1.82552,0 -3.65104,0 -5.47656,0 0,0.6666667 0,1.33333333 0,2 z m -4.60743,35.375 c 0.94225,0.03556 1.00778,1.53348 0.076,1.6514 -0.93215,0.224756 -1.3603,-1.20958 -0.49197,-1.575228 0.12752,-0.0672 0.27422,-0.08347 0.41601,-0.07617 z" />
        <path style="fill:#ffffff;fill-opacity:0.466667" d="m 159.64453,0 c 0,1.281901 0,2.5638021 0,3.8457031 4.60091,4.6009115 9.20182,9.2018229 13.80274,13.8027349 0,3.536458 0,7.072916 0,10.609374 -1.12891,1.134115 -2.25782,2.26823 -3.38672,3.402344 -2.52955,-0.570631 -5.22686,1.406494 -5.47071,3.982422 -0.38759,2.555122 1.74565,5.113489 4.32839,5.18866 2.60417,0.233068 5.03641,-2.11852 4.90208,-4.727722 -0.19168,-0.669958 0.6472,-0.946193 0.96244,-1.423711 1.37957,-1.386242 2.76069,-2.77095 4.13913,-4.158321 -10e-6,-5.046875 0,-10.09375 0,-15.140625 -4.60083,-4.600346 -9.20184,-9.2005065 -13.80274,-13.8007809 0,-1.19335935 0,-2.38671872 0,-3.5800781 -1.82487,0 -3.64974,0 -5.47461,0 0,0.6666667 0,1.33333333 0,2 z m 9.61719,35.375 c 0.97762,0.03974 0.98573,1.603996 0.0156,1.664062 -0.94267,0.141834 -1.28254,-1.337646 -0.37033,-1.615988 0.11207,-0.04703 0.23498,-0.05274 0.35471,-0.04807 z" />
        <path style="fill:#ffffff;fill-opacity:0.466667" d="m 58.890625,0 c 0,5.9433594 0,11.886719 0,17.830078 -1.692229,1.558773 -1.480198,4.578066 0.410206,5.889907 1.819282,1.444628 4.807925,0.75265 5.794872,-1.352797 0.776745,-1.464194 0.467805,-3.406318 -0.730469,-4.550782 0,-6.605468 0,-13.2109373 0,-19.816406 -1.824869,0 -3.649739,0 -5.474609,0 0,0.6666667 0,1.33333333 0,2 z" />
        <path style="fill:#ffffff;fill-opacity:0.466667" d="m 68.664062,0 c 10e-7,1.9817708 0,3.9635417 0,5.9453125 -2.105211,1.4310393 -2.55214,4.6635715 -0.923828,6.6171875 1.53835,2.079592 4.859788,2.36642 6.732302,0.583239 1.968405,-1.664207 2.048089,-4.9799018 0.168089,-6.7414421 -0.587293,-0.2925573 -0.539476,-0.8476839 -0.501953,-1.4257813 0,-2.3261718 0,-4.65234372 0,-6.9785156 -1.82487,0 -3.64974,0 -5.47461,0 0,0.6666667 10e-7,1.33333333 0,2 z m 2.736329,8.8886719 c 0.107761,0.3065148 1.139407,0.3217713 0.77539,1.078125 -0.230209,0.9133461 -1.708976,0.6557431 -1.628906,-0.2753907 0.02884,-0.4377178 0.401744,-0.8270209 0.853516,-0.8027343 z" />
        <path style="fill:#ffffff;fill-opacity:0.466667" d="m 27.992188,-1.3984375 c -1.618233,1.65780267 -3.239,3.3131345 -4.855469,4.9726563 0,8.0507812 0,16.1015622 0,24.1523432 -1.715102,1.580848 -1.46621,4.657364 0.478515,5.947266 1.827879,1.385335 4.748019,0.671928 5.72461,-1.404297 0.783075,-1.46122 0.470028,-3.406036 -0.728516,-4.548828 0,-7.306641 0,-14.613281 0,-21.9199218 C 31.084065,3.2005977 33.556779,0.60039236 36.029297,-2 c -2.482422,0 -4.964844,0 -7.447266,0 -0.196614,0.2005208 -0.393229,0.4010417 -0.589843,0.6015625 z" />
        <path style="fill:#ffffff;fill-opacity:0.466667" d="M 41.128906,-1.4082031 C 38.907395,0.8318753 36.687279,3.0733381 34.464844,5.3125 c 0,7.276042 0,14.552083 0,21.828125 -2.124874,1.457012 -2.524283,4.74219 -0.839844,6.683594 1.569768,2.008631 4.821241,2.253665 6.669802,0.499254 1.969162,-1.664487 2.047571,-4.979729 0.168089,-6.741442 -0.587167,-0.301822 -0.57311,-0.848056 -0.523438,-1.441406 0,-6.1875 0,-12.375 0,-18.5625 C 43.127019,4.3854828 46.314685,1.19294 49.501953,-2 c -2.595703,0 -5.191406,0 -7.787109,0 -0.195313,0.1972656 -0.390625,0.3945313 -0.585938,0.5917969 z M 37.273438,30.066406 c 0.943309,0.03232 1.006944,1.532535 0.07596,1.649447 -0.932961,0.226956 -1.37926,-1.264257 -0.478537,-1.584177 0.12366,-0.06144 0.266901,-0.07007 0.402577,-0.06527 z" />
        <path style="fill:#ffffff;fill-opacity:0.466667" d="m 122.19531,0 v 6.8730469 c -4.22135,4.2213541 -8.44271,8.4427081 -12.66406,12.6640621 v 29.796875 c -2.12368,1.45897 -2.52731,4.748181 -0.83594,6.6875 1.56933,2.004939 4.81953,2.248853 6.6659,0.495348 1.97373,-1.665772 2.04609,-4.988194 0.16027,-6.747301 -0.58349,-0.300658 -0.56265,-0.846541 -0.51562,-1.435547 V 21.804688 c 4.22135,-4.221355 8.44271,-8.442709 12.66406,-12.664063 V -2 h -5.47461 z m -9.67075,52.264503 c 0.61886,0.28314 0.67011,0.670277 0.48911,1.159325 -0.56269,0.852021 -1.71686,0.422656 -1.55656,-0.560949 0.23074,-0.452602 0.51704,-0.668718 1.06745,-0.598376 z"/>
        <path style="fill:#ffffff;fill-opacity:0.466667" d="m 129.86133,0 c 0,2.9095052 0,5.8190104 0,8.7285156 -4.16537,4.1653644 -8.33073,8.3307294 -12.4961,12.4960934 0,6.585287 0,13.170573 0,19.75586 1.77735,1.777343 3.55469,3.554687 5.33204,5.332031 0,2.985026 0,5.970052 0,8.955078 -1.69514,1.587918 -1.43866,4.645965 0.49804,5.931641 1.87812,1.423745 4.90106,0.625856 5.81446,-1.550781 0.6778,-1.450012 0.32681,-3.310033 -0.83789,-4.408204 -10e-6,-3.73177 0,-7.463541 0,-11.195312 -1.77735,-1.777344 -3.55469,-3.554688 -5.33204,-5.332031 0,-5.074219 0,-10.148438 0,-15.222657 4.16535,-4.164728 8.33083,-8.329332 12.4961,-12.49414 0,-4.3320315 0,-8.6640627 0,-12.996094 -1.82487,0 -3.64974,0 -5.47461,0 0,0.6666667 0,1.33333333 0,2 z" />
        <path style="fill:#ffffff;fill-opacity:0.466667" d="m 77.511719,59.826172 c -2.69963,0.01957 -4.940355,2.763017 -4.425555,5.412652 0.343156,2.450639 2.902483,4.284995 5.333758,3.806098 l 5.224609,5.224609 v 15.425781 c 4.894946,4.88956 9.791811,9.7772 14.6875,14.666018 V 138.7793 L 71.402344,165.70898 V 198 h 5.474609 V 167.97656 L 103.80664,141.04688 V 102.0918 C 98.911695,97.202237 94.014829,92.314598 89.119141,87.425781 V 72.001953 l -6.878907,-6.878906 c 0.437137,-2.514466 -1.575297,-5.085112 -4.117187,-5.28125 -0.203389,-0.0042 -0.408333,-0.03865 -0.611328,-0.01563 z m 0.230469,3.796875 c 0.924717,0.05365 0.98947,1.5346 0.0621,1.648518 -0.99034,0.250076 -1.375345,-1.361736 -0.398036,-1.613362 0.110929,-0.02894 0.221349,-0.04295 0.335938,-0.03516 z"/>
        <path style="fill:#ffffff;fill-opacity:0.466667" d="m 67.527344,78.039062 c -2.250401,-0.0159 -4.132816,2.215371 -3.761958,4.429791 0.124711,0.838111 0.513726,1.642998 1.125239,2.234272 v 19.160155 c -2.304036,2.30404 -4.608073,4.60807 -6.912109,6.91211 v 35.79297 c 2.176898,2.17662 4.354193,4.35284 6.53125,6.5293 -0.749042,2.44188 0.925295,5.2474 3.425781,5.7539 2.475415,0.64505 5.211218,-1.16184 5.599609,-3.6875 0.224918,-2.6259 -0.951709,-4.67294 -4.446801,-5.30179 -0.480409,-0.43905 -0.81615,-0.74241 -0.81615,-0.74241 l -4.81908,-4.81908 v -31.25781 c 2.304036,-2.30404 4.608073,-4.60807 6.912109,-6.91211 V 84.705078 c 1.689322,-1.529352 1.508716,-4.503932 -0.330078,-5.841797 -0.706664,-0.554432 -1.610238,-0.850128 -2.507812,-0.824219 z m 0.101562,3.806641 c -0.0073,0.02897 0.0029,0.02309 0,0 z m 1.543897,71.684957 c 1.10018,0.19868 0.901904,1.78151 -0.268506,1.63731 -1.00292,-0.17794 -1.060788,-1.806 0.268506,-1.63731 z"/>
        <path style="fill:#ffffff;fill-opacity:0.466667" d="m 79.279297,92.173828 c -2.611194,-0.01689 -4.850797,2.511963 -4.507813,5.103516 0.123467,1.28762 0.819681,2.510831 1.871094,3.265626 v 9.93359 c -2.746094,2.7461 -5.492187,5.49219 -8.238281,8.23828 v 21.45118 l 7.074219,7.07421 c -0.262509,2.25976 1.813025,4.39839 4.080344,4.20399 2.21786,-0.04 4.020143,-2.25196 3.667267,-4.4302 -0.175688,-1.80038 -1.797841,-3.29295 -3.597221,-3.36558 -1.916666,-1.91667 -3.833333,-3.83334 -5.75,-5.75 v -16.91602 c 2.746094,-2.74609 5.492188,-5.49219 8.238282,-8.23828 v -12.20117 c 2.200796,-1.509171 2.54844,-4.985506 0.665289,-6.88717 -0.883799,-0.965672 -2.195214,-1.516103 -3.50318,-1.481972 z m 0.173828,3.822266 c 0.755696,-0.044 1.126333,1.377644 0.25,1.402344 -0.491654,0.150444 -1.328324,-0.01541 -1.138454,-0.69606 0.0589,-0.41982 0.464104,-0.747713 0.888454,-0.706284 z"/><path style="fill:#ffffff;fill-opacity:0.466667" d="m 36.275391,118.51758 c -2.610996,-0.0173 -4.849173,2.51267 -4.50586,5.10351 0.123467,1.28762 0.819681,2.51083 1.871094,3.26563 v 29.71094 L 51.888672,174.8457 V 198 h 5.474609 v -25.41992 c -6.082747,-6.08327 -12.165354,-12.16668 -18.248047,-18.25 v -27.44336 c 2.088467,-1.43725 2.523951,-4.65537 0.902344,-6.60156 -0.878994,-1.13379 -2.30769,-1.80907 -3.742187,-1.76758 z m 0.173828,3.82226 c 0.754504,-0.0419 1.128225,1.37061 0.253906,1.40235 -0.480805,0.13195 -1.289148,0.0178 -1.15625,-0.65625 0.03563,-0.44895 0.455949,-0.79206 0.902344,-0.7461 z"/>
        <path style="fill:#ffffff;fill-opacity:0.466667" d="m 11.775391,68.113281 c -2.252183,-0.01598 -4.134204,2.218127 -3.761862,4.43369 0.121871,0.839556 0.511559,1.644682 1.12319,2.236232 v 24.183594 c 5.127527,5.127033 10.255221,10.253893 15.382812,15.380863 v 43.91601 c 6.314453,6.31446 12.628907,12.62891 18.94336,18.94336 V 198 h 5.476562 V 174.93945 C 42.624411,168.62494 36.309235,162.31056 29.994141,155.99609 V 112.08203 C 24.866536,106.95443 19.738932,101.82682 14.611328,96.699219 V 74.777344 c 1.68747,-1.556934 1.494237,-4.582986 -0.404347,-5.89186 -0.693343,-0.520724 -1.564755,-0.797707 -2.43159,-0.772203 z"/>
        <path style="fill:#ffffff;fill-opacity:0.466667" d="m 17.492188,152.38086 c -2.611195,-0.0169 -4.850797,2.51196 -4.507813,5.10352 0.123502,1.28701 0.818658,2.51052 1.871094,3.26367 v 10.45312 l 8.660156,8.66016 v 18.2207 l 5.476563,-0.16406 c 0,0 0,-13.59115 0,-20.3457 -2.887231,-2.88686 -5.774762,-5.77342 -8.66211,-8.66016 v -8.16406 c 2.124874,-1.45701 2.524283,-4.74219 0.839844,-6.6836 -0.890204,-1.08059 -2.275613,-1.72536 -3.677734,-1.68359 z m 0.173828,3.82226 c 1.037911,0.0173 1.101792,1.41446 -0.05676,1.41462 -1.178147,-0.009 -0.993199,-1.44266 0.05676,-1.41462 z"/>
        <path style="fill:#ffffff;fill-opacity:0.466667" d="m 104.53516,158.42188 c -2.27137,-0.0177 -4.17262,2.2628 -3.74839,4.49335 0.27895,2.26421 2.80285,3.84968 4.96679,3.1379 0.67444,-0.15337 1.22059,-0.66518 1.7566,-1.0004 h 5.58945 c 4.44141,4.44206 8.88281,8.88412 13.32422,13.32618 V 198 h 5.47461 v -21.88867 l -16.53321,-16.53321 h -7.95898 c -0.73685,-0.76648 -1.81129,-1.18563 -2.87109,-1.15624 z"/>
        <path style="fill:#ffffff;fill-opacity:0.466667" d="m 127.16016,106.27539 c -2.5993,-0.0162 -4.83219,2.48888 -4.51172,5.07031 0.25548,0.57405 -0.24673,0.87796 -0.61727,1.24813 l -6.06242,6.06242 c -0.12215,9.41918 -0.4126,18.84044 -0.2491,28.26094 0.12255,1.5046 -0.12672,3.25228 0.8912,4.50194 0.7989,0.69032 1.64051,1.3371 2.37256,2.11402 5.27138,5.15617 10.3874,10.4684 15.52831,15.75396 V 198 h 5.47656 v -30.94141 c -6.01298,-6.12606 -11.91556,-12.36584 -18.10731,-18.31293 -0.34326,-0.32537 -0.80843,-0.57801 -0.66613,-1.13043 -0.17401,-8.88512 0.0588,-17.7723 0.21289,-26.65625 1.81674,-1.7991 3.61528,-3.64788 5.44336,-5.41601 2.56692,0.29572 5.03897,-1.93286 5.02344,-4.51367 0.11775,-2.59314 -2.14011,-4.85259 -4.73437,-4.75391 z m 0.17382,3.82227 c 0.92363,0.0312 1.01584,1.49148 0.10938,1.64257 -0.45348,-0.41869 -1.02919,-0.18085 -1.01563,-0.83242 0.0223,-0.46193 0.43559,-0.85991 0.90625,-0.81015 z"/>
        <path style="fill:#ffffff;fill-opacity:0.466667" d="m 35.099609,66.996094 c -2.610995,-0.0173 -4.849172,2.51267 -4.505859,5.103515 0.123467,1.28762 0.819681,2.510831 1.871094,3.265625 v 21.851563 c 5.274814,5.275313 10.549467,10.550793 15.824218,15.826173 v 39.88867 c 5.014974,5.01497 10.029948,10.02995 15.044922,15.04492 V 198 h 5.47461 V 165.70898 C 63.79362,160.69401 58.778646,155.67904 53.763672,150.66406 V 110.77539 C 48.488858,105.50007 43.214205,100.2246 37.939453,94.949219 V 75.365234 c 2.088467,-1.437246 2.523951,-4.655368 0.902344,-6.601562 -0.878994,-1.133784 -2.30769,-1.809062 -3.742188,-1.767578 z m 0.173829,3.822265 c 1.019497,0.273929 0.158971,0.38646 -0.425782,0.306641 -0.792212,0.124488 0.251819,-0.41744 0.425782,-0.306641 z m -0.07031,1.044922 c 0.327845,-0.460057 0.968785,-0.971123 0.810467,-0.04257 -0.145402,0.971088 -1.707895,0.807289 -1.642498,-0.182433 0.03928,-0.971478 0.477472,0.0044 0.832031,0.225 z m 0.484375,0.484375 c 0.544274,0.443692 1.012765,0.887443 0.200823,1.332192 -0.44003,0.660241 -0.880481,0.779479 -1.321594,0.05094 -0.756624,-0.441739 -0.536952,-0.882857 0.0905,-1.323715 0.187846,-0.08451 0.446937,0.169127 0.563477,0.09292 0.199876,-0.01022 0.308163,-0.05259 0.466797,-0.152344 z"/>
        <path style="fill:#ffffff;fill-opacity:0.466667" d="m 184.70508,61.263672 c -2.6112,-0.01689 -4.8508,2.511963 -4.50781,5.103516 0.18376,2.493381 2.6683,4.484488 5.14062,4.126953 0.57583,-0.13018 0.83839,0.673546 1.28097,0.94698 0.9428,0.942804 1.8856,1.885607 2.82841,2.82841 0,3.535808 0,7.071615 0,10.607422 -4.60092,4.600912 -9.20183,9.201823 -13.80274,13.802735 0,15.393882 0,30.787762 0,46.181642 8.78627,8.79967 17.56977,17.60211 26.35547,26.40234 0,-2.60872 0,-5.21745 0,-7.82617 -6.96127,-6.94758 -13.92041,-13.8973 -20.88086,-20.8457 0,-13.88151 0,-27.76302 0,-41.64453 4.60091,-4.600916 9.20182,-9.201827 13.80274,-13.802739 -10e-6,-5.046875 0,-10.09375 0,-15.140625 -1.82678,-1.860323 -3.73505,-3.695115 -5.50977,-5.572265 0.35083,-2.446987 -1.58241,-4.898951 -4.04102,-5.134766 -0.22012,-0.02548 -0.44424,-0.04005 -0.66601,-0.0332 z m 0.17383,3.822266 c 0.97862,0.0365 0.98491,1.603042 0.0156,1.662109 -0.92368,0.13968 -1.28077,-1.291074 -0.40004,-1.599402 0.11849,-0.05708 0.25488,-0.06758 0.38442,-0.06271 z" />
        <path style="fill:#ffffff;fill-opacity:0.466667" d="m 152.60938,0 c 0,2.5247396 -10e-6,5.0494792 0,7.5742188 -1.7767,1.7766927 -3.55339,3.5533852 -5.33008,5.3300782 0,3.720703 0,7.441406 0,11.162109 -1.71171,1.557174 -1.51102,4.601816 0.39067,5.92311 1.80179,1.426557 4.7403,0.771479 5.76362,-1.288344 0.80075,-1.473068 0.53167,-3.446461 -0.67968,-4.615234 0,-2.971355 0,-5.942709 0,-8.914063 1.77731,-1.776723 3.55491,-3.553157 5.33203,-5.3300781 0,-3.9472657 0,-7.8945313 0,-11.8417969 -1.82552,0 -3.65104,0 -5.47656,0 0,0.6666667 -10e-6,1.33333333 0,2 z" />
        <path style="fill:#ffffff;fill-opacity:0.466667" d="m 144.39648,0 c 0,2.0820313 0,4.1640625 0,6.2460938 -1.95309,1.9525022 -3.90645,3.9047422 -5.85937,5.8574222 0,4.361979 0,8.723958 0,13.085937 -1.47591,1.475912 -2.95182,2.951823 -4.42773,4.427735 -2.48482,-0.460614 -5.06275,1.482578 -5.3125,3.996093 -0.39522,2.558713 1.73763,5.127818 4.32643,5.204285 2.54037,0.228039 4.95576,-1.994358 4.90208,-4.551941 -0.0752,-0.524856 -0.0855,-0.981344 0.43718,-1.275426 1.84972,-1.84373 3.69938,-3.687533 5.54915,-5.531215 0,-4.36263 0,-8.72526 0,-13.08789 1.9531,-1.952502 3.90645,-3.904742 5.85937,-5.857422 0,-3.5045574 0,-7.0091147 0,-10.513672 -1.82487,0 -3.64974,0 -5.47461,0 0,0.6666667 0,1.3333333 0,2 z m -10.79101,33.564453 c 0.47043,0.235448 0.86873,0.974744 0.2495,1.296703 -0.80074,0.612786 -1.80173,-0.713092 -1.00341,-1.322094 0.26644,-0.244039 0.49662,-0.212672 0.75391,0.02539 z" />
        <path style="fill:#ffffff;fill-opacity:0.466667" d="m 179.5,156.42578 c -0.97846,0.0293 -1.9447,0.44747 -2.625,1.15234 -2.65365,0 -5.30729,10e-6 -7.96094,0 -5.51107,5.51107 -11.02213,11.02214 -16.5332,16.53321 V 198 h 5.47656 v -21.62109 c 4.44141,-4.44206 8.88281,-8.88412 13.32422,-13.32618 h 5.69531 c 1.57948,1.7181 4.65731,1.4681 5.94727,-0.47656 1.38533,-1.82788 0.67193,-4.74802 -1.4043,-5.72461 -0.5874,-0.30535 -1.25829,-0.45869 -1.91992,-0.42578 z"/>
        <path style="fill:#ffffff;fill-opacity:0.466667" d="m 163.27734,127.41016 c -2.61099,-0.0173 -4.84917,2.51267 -4.50586,5.10351 0.12347,1.28762 0.81969,2.51083 1.8711,3.26563 v 9.42773 c -5.8665,5.86136 -11.72272,11.73305 -17.5957,17.58789 0,13.06836 -10e-6,22.13672 0,35.20508 h 5.4746 v -32.93164 c 5.8665,-5.86136 11.72272,-11.73305 17.59571,-17.58789 V 135.7793 c 2.08846,-1.43725 2.52395,-4.65537 0.90234,-6.60157 -0.87899,-1.13378 -2.30769,-1.80906 -3.74219,-1.76757 z m 0.17383,3.82226 c 0.75451,-0.0419 1.12823,1.37061 0.25391,1.40235 -0.48081,0.13195 -1.28915,0.0178 -1.15625,-0.65625 0.0356,-0.44895 0.45595,-0.79206 0.90234,-0.7461 z"/>
    </g>
    <path fill="#ffffff" d="m 95.263159,189.64891 c 0.906063,0 1.621139,-0.57074 2.145237,-1.71219 0.532979,-1.15924 0.799468,-2.80481 0.799468,-4.93672 0,-2.11415 -0.266489,-3.75083 -0.799468,-4.91005 -0.524098,-1.15924 -1.239174,-1.73885 -2.145237,-1.73885 -0.906063,0 -1.627802,0.57739 -2.165224,1.73218 -0.537421,1.15478 -0.80391,2.79369 -0.799467,4.91672 0.0046,2.12303 0.270933,3.76638 0.799467,4.93005 0.528535,1.16367 1.25028,1.73661 2.165224,1.71886 M 100.49967,183 c 0,3.38885 -0.552968,5.98935 -1.658897,7.80146 C 98.001335,192.26716 96.808796,193 95.263159,193 93.704198,193 92.504997,192.26716 91.665557,190.80146 90.555184,188.98935 90,186.38885 90,183 c 0,-3.45992 0.555184,-6.05375 1.665557,-7.78148 C 92.504997,173.7395 93.704198,173 95.263159,173 c 1.558961,0 2.751499,0.7395 3.577614,2.21852 1.110373,1.73218 1.665557,4.33489 1.665557,7.80813 m 1.73218,-9.39374 H 110 v 3.32445 h -5.48967 v 4.33045 h 4.81012 v 3.27115 h -4.78348 v 7.90807 h -2.26514 z"/>
    <path fill="#ffffff" d="m 42.53832,30 h 31.039654 l 56.369536,97.71378 V 30 H 157.5 V 170 H 127.95485 L 70.129124,70.5465 V 170 H 42.5 Z"/>
</svg>
