<svg viewBox="0 0 200 200" xmlns="http://www.w3.org/2000/svg"><path d="M0 0h200v200H0z" fill="#375d90"/><g fill="#fff" fill-opacity=".5"><path d="m167.3 0 .1 2 14.9 15v25.2a4 4 0 0 0 .3 5.9 4 4 0 0 0 5.8-1.4 4 4 0 0 0-.7-4.5V14.7l-14.9-15V-2h-5.5zm-63.9 61.3a4.7 4.7 0 0 0-4.6 5c-.1.6-.7.9-1 1.3L93.3 72v15.1l13.8 13.8v41.7l-27.4 27.3V198h5.5v-25.8l27.3-27.3V98.7L98.8 84.9V74.3l3.8-3.8c2.5.6 5.2-1.4 5.5-4 .4-2.5-1.7-5-4.3-5.2zm.1 3.8c1 0 1 1.6.1 1.7-.9.2-1.4-1.2-.5-1.6zM95.4-2h-3L77.7 13v15.4l-5 5a4.7 4.7 0 0 0-5.4 3.9 4.7 4.7 0 0 0 4.4 5.2c2.6.2 5-2.1 4.9-4.8-.2-.6.6-1 1-1.4l5.6-5.7V15.1L100.4-2zM71.9 37c1 0 1 1.5.1 1.6s-1.4-1.4-.4-1.6z"/><path d="M102-1.4 86.6 14.4v26.5q0 .9-.7 1.2c-2 1.8-2 5.1 0 6.8a4.7 4.7 0 0 0 6.8-.5c1.6-1.8 1.3-5-.7-6.5V16.6l15-14.9V-2h-4.4zm-13 46q-133.5-69.9 0 0m0 0c1 0 1.2 1.5.3 1.7-.9.3-1.5-1-.7-1.5l.5-.1"/><path d="M109.2 0c-.1.7.2 1.6-.5 2L95.4 15.4v15.1l4.6 4.7a4.7 4.7 0 0 0 3.5 5.5c2.5.6 5.2-1.2 5.6-3.8s-1.5-5-4-5.3q-1 .2-1.6-.7l-2.7-2.6V17.6l13.8-13.8V-2h-5.4zm-4.6 35.4c.9 0 1 1.5 0 1.6-.9.3-1.3-1.2-.5-1.5zm55-35.4v3.8l13.8 13.8v10.7l-3.3 3.4a4.7 4.7 0 0 0-5.5 4 4.7 4.7 0 0 0 4.3 5.1c2.6.3 5-2 5-4.7-.3-.7.6-1 .9-1.4l4.1-4.2V15.4L165.1 1.6V-2h-5.5zm9.7 35.4c1 0 1 1.6 0 1.6-1 .2-1.3-1.3-.4-1.6zM58.9 0v17.8a4 4 0 0 0 .4 6 4 4 0 0 0 5.8-1.4 4 4 0 0 0-.7-4.6V-2h-5.5zm9.8 0v6a4.7 4.7 0 0 0-1 6.6c1.6 2 4.9 2.3 6.8.5 2-1.6 2-5 .1-6.7q-.6-.5-.5-1.4v-7h-5.4zm2.7 8.9c.1.3 1.1.3.8 1-.3 1-1.7.7-1.7-.2q0-.7.9-.8M28-1.4l-4.9 5v24.1a4 4 0 0 0 .5 6 3.9 3.9 0 0 0 5-6V5.8L36-2h-7.4z"/><path d="m41.1-1.4-6.6 6.7v21.8a4.7 4.7 0 0 0-.9 6.7c1.6 2 4.8 2.3 6.7.5 2-1.6 2-5 .2-6.7q-.7-.5-.6-1.5V7.6L49.5-2h-7.8zM37.3 30c1 0 1 1.5 0 1.6s-1.3-1.2-.4-1.6zm84.9-30v6.9l-12.7 12.6v29.8a4.7 4.7 0 0 0-.8 6.7c1.6 2 4.8 2.3 6.7.5 2-1.6 2-5 .1-6.7q-.7-.5-.5-1.5V21.8l12.7-12.7V-2h-5.5zm-9.7 52.3q.9.3.5 1.1c-.5.9-1.7.4-1.5-.5q.3-.7 1-.6"/><path d="M129.9 0v8.7l-12.5 12.5V41l5.3 5.3v9a4 4 0 0 0 .5 5.9 4 4 0 0 0 5.8-1.6 4 4 0 0 0-.8-4.4V44l-5.4-5.3V23.5L135.3 11V-2H130zM77.5 59.8c-2.7 0-5 2.8-4.4 5.4a4.7 4.7 0 0 0 5.3 3.8l5.2 5.3v15.4l14.7 14.7v34.4l-26.9 27V198h5.5v-30l27-27v-39L89 87.5V72l-6.9-6.9c.5-2.5-1.5-5-4-5.3zm.2 3.8c1 0 1 1.6.1 1.7-1 .2-1.4-1.4-.4-1.6z"/><path d="M67.5 78a4 4 0 0 0-3.7 4.5 4 4 0 0 0 1 2.2v19.2l-6.8 6.9v35.8l6.5 6.5c-.7 2.4 1 5.2 3.4 5.8 2.5.6 5.2-1.2 5.6-3.7q.6-4.2-4.4-5.3l-.8-.8-4.8-4.8V113l6.9-6.9V84.7a3.9 3.9 0 0 0-2.9-6.7m1.7 75.5a.8.8 0 0 1-.3 1.7c-1-.2-1-1.8.3-1.7"/><path d="M79.3 92.2a4.7 4.7 0 0 0-4.5 5q.2 2.2 1.8 3.3v10l-8.2 8.2v21.5l7 7a4 4 0 0 0 4.2 4.2 4 4 0 0 0 3.6-4.4 4 4 0 0 0-3.6-3.4L74 138v-17l8.2-8.2v-12.2c2.2-1.5 2.6-5 .7-6.8q-1.5-1.6-3.5-1.5m.2 3.8c.7 0 1 1.4.2 1.4-.5.1-1.3 0-1.1-.7q0-.7.9-.7m-43.3 22.4a4.7 4.7 0 0 0-4.5 5.1q.1 2 1.8 3.3v29.7L52 174.8V198h5.5v-25.4L39 154.3V127a5 5 0 0 0 1-6.6 5 5 0 0 0-3.8-1.8m.1 3.8c.8 0 1.2 1.4.3 1.4-.5.2-1.3 0-1.2-.6q.1-.8 1-.8"/><path d="M11.8 68.1A4 4 0 0 0 9 74.8V99q7.8 7.6 15.4 15.3v44l19 19V198h5.4v-23l-19-19v-44L14.7 96.8v-22a4 4 0 0 0-2.8-6.6m5.6 84.2a4.7 4.7 0 0 0-4.5 5q.2 2.2 1.9 3.3v10.5l8.6 8.7V198l5.5-.2v-20.3l-8.7-8.7v-8.2a4.7 4.7 0 0 0 .9-6.6q-1.6-1.8-3.7-1.7m.2 3.8c1 0 1 1.4 0 1.4-1.3 0-1-1.4 0-1.4m86.8 2.3a4 4 0 0 0-3.7 4.5 4 4 0 0 0 5 3.2q1-.4 1.7-1h5.6l13.3 13.3V198h5.5v-21.9l-16.5-16.5h-8a4 4 0 0 0-2.9-1.2"/><path d="M127.2 106.3a4.7 4.7 0 0 0-4.6 5c.3.6-.2 1-.6 1.3l-6 6q-.4 14.2-.3 28.3c.1 1.5-.1 3.3 1 4.5l2.3 2.1q7.9 7.8 15.5 15.8V198h5.5v-31l-18.1-18.3q-.7-.4-.7-1-.2-13.5.2-26.7l5.5-5.5a4.6 4.6 0 1 0 .3-9.3m.1 3.8c1 0 1 1.5.1 1.6-.4-.4-1-.1-1-.8q.1-.9 1-.8M35.1 67a4.7 4.7 0 0 0-4.5 5.1q.2 2 1.9 3.3v21.8L48.3 113v40l15 15v30h5.5v-32.3l-15-15v-40L37.9 95V75.4c2.1-1.5 2.6-4.7 1-6.6A5 5 0 0 0 35 67m.2 3.8c1 .3.1.4-.5.3-.7.1.3-.4.5-.3m-.1 1c.3-.4 1-1 .8 0s-1.7.8-1.6-.2.4 0 .8.3m.5.5c.5.5 1 1 .2 1.4q-.7 1-1.3 0-1-.7 0-1.3l.6.1q.3 0 .5-.2m149.1-11.1a4.7 4.7 0 0 0-4.5 5 4.6 4.6 0 0 0 5.1 4.2c.6-.1.9.7 1.3 1l2.8 2.8v10.6l-13.8 13.8v46.2l26.4 26.4v-7.9l-20.9-20.8v-41.7L195 87.1V72l-5.5-5.6a4.7 4.7 0 0 0-4.7-5.1m.2 3.8c1 0 1 1.6 0 1.6-1 .2-1.3-1.2-.4-1.6zM152.6 0v7.6l-5.3 5.3v11.2a4 4 0 0 0 .4 5.9 4 4 0 0 0 5.7-1.3 4 4 0 0 0-.6-4.6v-9l5.3-5.3V-2h-5.5z"/><path d="M144.4 0v6.2l-5.9 5.9v13l-4.4 4.5c-2.5-.4-5 1.5-5.3 4a4.6 4.6 0 1 0 9.2.7q-.1-.9.5-1.3l5.5-5.5V14.4l5.9-5.9V-2h-5.5zm-10.8 33.6c.5.2.9 1 .3 1.3-.8.6-1.8-.8-1-1.4q.3-.3.7 0m45.9 122.9q-1.6 0-2.6 1.2h-8L152.4 174v24h5.5v-21.6q6.6-6.8 13.3-13.3h5.7a4 4 0 0 0 6-.5 4 4 0 0 0-3.4-6.2"/><path d="M163.3 127.4a4.7 4.7 0 0 0-4.5 5.1q.2 2 1.8 3.3v9.4L143 162.8V198h5.5v-33l17.6-17.5v-11.7a5 5 0 0 0 1-6.6 5 5 0 0 0-3.8-1.8m.2 3.8c.7 0 1 1.4.2 1.4-.5.2-1.3 0-1.2-.6q.1-.8 1-.8"/></g><path fill="#fff" d="M95.3 189.6q1.3 0 2.1-1.7t.8-4.9a12 12 0 0 0-.8-5q-.7-1.6-2.1-1.6T93 178a12 12 0 0 0-.8 4.9q0 3.2.8 5 .7 1.6 2.2 1.6m5.2-6.6q0 5.1-1.7 7.8-1.2 2.2-3.5 2.2-2.4 0-3.6-2.2A15 15 0 0 1 90 183q0-5.2 1.7-7.8 1.2-2.2 3.6-2.2 2.3 0 3.5 2.2 1.8 2.7 1.7 7.8m1.7-9.4h7.8v3.4h-5.5v4.3h4.8v3.3h-4.8v7.9h-2.2zM42.5 30h31l56.4 97.7V30h27.6v140H128L70 70.5V170H42.5Z"/></svg>