<svg viewBox="0 0 24 24" xmlns="http://www.w3.org/2000/svg">
    <symbol id="ocno-i-print">
        <path d="M 8 2 C 6.35 2 5 3.35 5 5 L 5 6.05 C 4.89 6.06 4.78 6.07 4.67 6.08 C 4.01 6.17 3.36 6.4 2.88 6.88 C 2.4 7.36 2.17 8.014 2.08 8.67 C 2 9.33 2 10.06 2 11 L 2 13 C 2 13.94 1.99 14.67 2.08 15.33 C 2.17 15.99 2.4 16.64 2.88 17.12 C 3.36 17.6 4.01 17.83 4.67 17.92 C 5.07 17.97 5.52 17.99 6 18 C 6.01 18.49 6.03 18.92 6.08 19.33 C 6.17 19.99 6.4 20.64 6.88 21.12 C 7.36 21.6 8.01 21.83 8.67 21.92 C 9.33 22 10.06 22 11 22 L 13 22 C 13.94 22 14.67 22.01 15.33 21.92 C 15.99 21.83 16.64 21.6 17.12 21.12 C 17.6 20.64 17.83 19.99 17.92 19.33 C 17.97 18.92 17.99 18.49 18 18 C 18.48 17.99 18.93 17.97 19.33 17.92 C 19.99 17.83 20.64 17.6 21.12 17.12 C 21.6 16.64 21.83 15.99 21.92 15.33 C 22 14.67 22 13.94 22 13 L 22 11 C 22 10.06 22.01 9.33 21.92 8.67 C 21.83 8.01 21.6 7.36 21.12 6.88 C 20.64 6.4 19.99 6.17 19.33 6.08 C 19.22 6.07 19.11 6.06 19 6.05 L 19 5 C 19 3.36 17.65 2 16 2 L 8 2 z M 8 4 L 16 4 C 16.56 4 17 4.44 17 5 L 17 6 L 7 6 L 7 5 C 7 4.44 7.44 4 8 4 z M 7 8 L 17 8 C 17.942798 8 18.629208 8.01 19.06 8.06 C 19.49 8.12 19.6 8.19 19.71 8.29 C 19.81 8.4 19.88 8.51 19.94 8.94 C 19.99 9.37 20 10.06 20 11 L 20 13 C 20 13.94 20 14.63 19.94 15.06 C 19.88 15.49 19.81 15.6 19.71 15.71 C 19.6 15.81 19.49 15.88 19.06 15.94 C 18.8 15.97 18.43 15.98 18 15.99 C 17.99 15.51 17.97 15.07 17.92 14.67 C 17.83 14.01 17.6 13.36 17.12 12.88 C 16.64 12.4 15.99 12.17 15.33 12.08 C 14.67 11.99 13.94 12 13 12 L 11 12 C 10.06 12 9.33 11.99 8.67 12.08 C 8.01 12.17 7.36 12.4 6.88 12.88 C 6.4 13.36 6.17 14.01 6.08 14.67 C 6.03 15.07 6.01 15.51 6 15.99 C 5.57 15.98 5.2 15.97 4.94 15.94 C 4.51 15.88 4.4 15.81 4.29 15.71 C 4.19 15.6 4.12 15.49 4.06 15.06 C 4.01 14.63 4 13.94 4 13 L 4 11 C 4 10.06 4 9.37 4.06 8.94 C 4.12 8.51 4.19 8.4 4.29 8.29 C 4.4 8.19 4.51 8.1 4.94 8.06 C 5.37 8.01 6.06 8 7 8 z M 11 14 L 13 14 C 13.94 14 14.63 14.01 15.06 14.06 C 15.49 14.12 15.60 14.19 15.71 14.29 C 15.81 14.4 15.88 14.51 15.94 14.94 C 16 15.37 16 16.06 16 17 C 16 17.94 15.99 18.63 15.94 19.06 C 15.88 19.49 15.81 19.6 15.71 19.71 C 15.6 19.81 15.49 19.88 15.06 19.94 C 14.63 20 13.94 20 13 20 L 11 20 C 10.06 20 9.37 19.99 8.94 19.94 C 8.51 19.88 8.4 19.81 8.29 19.71 C 8.19 19.6 8.12 19.49 8.06 19.06 C 8.01 18.63 8 17.94 8 17 C 8 16.06 8.01 15.37 8.06 14.94 C 8.12 14.51 8.19 14.4 8.29 14.29 C 8.4 14.19 8.51 14.12 8.94 14.06 C 9.37 14 10.06 14 11 14 z" />
    </symbol>
    <symbol id="ocno-i-download">
        <path d="M 12 7 A 1 1 0 0 0 11 8 L 11 13.59 L 9.71 12.29 A 1 1 0 0 0 9 12 A 1 1 0 0 0 8.29 12.29 A 1 1 0 0 0 8.29 13.71 L 11.21 16.62 C 11.23 16.64 11.25 16.66 11.27 16.68 A 1 1 0 0 0 12 17 A 1 1 0 0 0 12.73 16.68 C 12.75 16.66 12.77 16.64 12.79 16.62 L 15.71 13.71 A 1 1 0 0 0 15.71 12.29 A 1 1 0 0 0 14.29 12.29 L 13 13.59 L 13 8 A 1 1 0 0 0 12 7 z M 3 14 A 1 1 0 0 0 2 15 L 2 16 L 2 19 C 2 20.65 3.36 22 5 22 L 19 22 C 20.65 22 22 20.65 22 19 L 22 16 L 22 15 A 1 1 0 0 0 21 14 A 1 1 0 0 0 20 15 L 20 16 L 20 19 C 20 19.56 19.56 20 19 20 L 5 20 C 4.44 20 4 19.56 4 19 L 4 16 L 4 15 A 1 1 0 0 0 3 14 z" />
    </symbol>
    <symbol id="ocno-i-upload">
        <path d="m 12.0625,16.836538 c 0.552285,0 1,-0.447715 1,-1 v -5.59 l 1.29,1.3 c 0.188719,0.187187 0.444197,0.291537 0.71,0.29 0.265803,0.0015 0.521281,-0.102813 0.71,-0.29 0.394398,-0.391177 0.394398,-1.028823 0,-1.42 l -2.92,-2.9099996 -0.06,-0.06 c -0.188472,-0.203223 -0.452835,-0.319108 -0.73,-0.32 -0.277165,8.92e-4 -0.541528,0.116777 -0.73,0.32 l -0.06,0.06 -2.9199996,2.9099996 c -0.394398,0.391177 -0.394398,1.028823 0,1.42 0.391177,0.394398 1.028823,0.394398 1.42,0 l 1.2899996,-1.3 v 5.59 c 0,0.552285 0.447715,1 1,1 z M 3,14 c -0.5522847,0 -1,0.447715 -1,1 v 1 3 c 0,1.65 1.36,3 3,3 h 14 c 1.65,0 3,-1.35 3,-3 v -3 -1 c 0,-0.552285 -0.447715,-1 -1,-1 -0.552285,0 -1,0.447715 -1,1 v 1 3 c 0,0.56 -0.44,1 -1,1 H 5 C 4.44,20 4,19.56 4,19 V 16 15 C 4,14.447715 3.5522847,14 3,14 Z" />
    </symbol>
    <symbol id="ocno-i-share">
        <path d="m 18,2 c -2.2,0 -4,1.8 -4,4 0,0.29 0.03,0.57 0.09,0.84 L 9.01,9.38 C 8.28,8.53 7.2,8 6,8 3.8,8 2,9.8 2,12 c 0,2.2 1.8,4 4,4 1.2,0 2.28,-0.53 3.01,-1.38 l 5.08,2.54 C 14.03,17.43 14,17.71 14,18 c 0,2.2 1.8,4 4,4 2.2,0 4,-1.8 4,-4 0,-2.2 -1.8,-4 -4,-4 -1.2,0 -2.28,0.53 -3.01,1.38 L 9.91,12.84 C 9.97,12.57 10,12.29 10,12 c 0,-0.29 -0.03,-0.57 -0.09,-0.84 L 15,8.62 C 15.72,9.47 16.8,10 18,10 20.2,10 22,8.2 22,6 22,3.8 20.2,2 18,2 Z m 0,2 c 1.12,0 2,0.88 2,2 0,1.17 -0.88,2 -2,2 C 16.88,8 16,7.17 16,6 16,4.88 16.88,4 18,4 Z M 6,10 c 1.12,0 2,0.88 2,2 0,1.17 -0.88,2 -2,2 -1.12,0 -2,-0.88 -2,-2 0,-1.12 0.88,-2 2,-2 z m 12,6 c 1.12,0 2,0.88 2,2 0,1.12 -0.88,2 -2,2 -1.12,0 -2,-0.88 -2,-2 0,-1.12 0.88,-2 2,-2 z" />
    </symbol>
    <symbol id="ocno-i-add">
        <path d="M 12 2 C 8.22 2 5.67 2.36 4.01 4.01 C 2.36 5.67 2 8.22 2 12 C 2 15.78 2.36 18.33 4.01 19.99 C 5.67 21.64 8.22 22 12 22 C 15.78 22 18.33 21.64 19.99 19.99 C 21.64 18.33 22 15.78 22 12 C 22 8.22 21.64 5.67 19.99 4.014 C 18.33 2.36 15.78 2 12 2 z M 12 4 C 15.63 4 17.58 4.43 18.57 5.43 C 19.57 6.42 20 8.37 20 12 C 20 15.63 19.57 17.58 18.57 18.57 C 17.58 19.57 15.63 20 12 20 C 8.37 20 6.42 19.57 5.43 18.57 C 4.43 17.58 4 15.63 4 12 C 4 8.37 4.43 6.42 5.43 5.43 C 6.42 4.43 8.37 4 12 4 z M 12 8 A 1 1 0 0 0 11 9 L 11 11 L 9 11 A 1 1 0 0 0 8 12 A 1 1 0 0 0 9 13 L 11 13 L 11 15 A 1 1 0 0 0 12 16 A 1 1 0 0 0 13 15 L 13 13 L 15 13 A 1 1 0 0 0 16 12 A 1 1 0 0 0 15 11 L 13 11 L 13 9 A 1 1 0 0 0 12 8 z" />
    </symbol>
    <symbol id="ocno-i-cloud-cross">
        <path d="M 12.69,4 C 10.1,4 7.92,5.55 6.83,7.69 3.96,8.41 2,10.88 2,13.65 2,17.15 4.88,20 8.40,20 H 16.5 C 19.53,20 22,17.52 22,14.5 22,12.48 20.84,10.74 19.19,9.75 18.77,6.52 16.04,4 12.69,4 Z m 0,2 c 2.48,0 4.47,1.9 4.61,4.31 a 1,1 0 0 0 0.6,0.86 C 19.1,11.69 20,13.05 20,14.5 20,16.44 18.44,18 16.5,18 H 8.4 C 5.95,18 4,16.06 4,13.65 4,11.69 5.43,9.85 7.66,9.49 A 1,1 0 0 0 8.42,8.89 C 9.12,7.23 10.78,6 12.69,6 Z M 10,10 a 1,1 0 0 0 -0.71,0.3 1,1 0 0 0 0,1.41 L 10.58,13 9.29,14.3 a 1,1 0 0 0 0,1.41 1,1 0 0 0 1.41,0 L 12,14.41 l 1.3,1.3 a 1,1 0 0 0 1.41,0 1,1 0 0 0 0,-1.41 L 13.41,13 14.7,11.71 a 1,1 0 0 0 0,-1.41 1,1 0 0 0 -1.41,0 L 12,11.59 10.71,10.3 A 1,1 0 0 0 10,10 Z" />
    </symbol>
    <symbol id="ocno-i-cloud-check">
        <path d="M 12.69,4 C 10.1,4 7.92,5.55 6.83,7.69 3.96,8.41 2,10.88 2,13.65 2,17.15 4.88,20 8.4,20 H 16.5 C 19.53,20 22,17.52 22,14.5 22,12.48 20.84,10.74 19.19,9.75 18.77,6.52 16.04,4 12.69,4 Z m 0,2 c 2.48,0 4.47,1.9 4.61,4.31 a 1,1 0 0 0 0.6,0.86 C 19.1,11.69 20,13.05 20,14.5 20,16.44 18.44,18 16.5,18 H 8.4 C 5.95,18 4,16.06 4,13.65 4,11.69 5.43,9.85 7.66,9.49 A 1,1 0 0 0 8.42,8.89 C 9.12,7.23 10.78,6 12.69,6 Z m 2.33,4 a 1,1 0 0 0 -0.71,0.28 l -3.46,3.33 -1.15,-1.11 a 1,1 0 0 0 -1.41,0.03 1,1 0 0 0 0.03,1.41 l 1.85,1.78 a 1,1 0 0 0 1.39,0 l 4.15,-4 A 1,1 0 0 0 15.72,10.31 1,1 0 0 0 15.02,10 Z" />
    </symbol>
    <symbol id="ocno-i-pencil">
        <path d="m 15.88,3.71 c 1.17,-1.17 3.07,-1.17 4.24,0 l 0.17,0.17 c 1.17,1.17 1.17,3.07 0,4.24 L 18.56,9.86 8.71,19.71 c -0.13,0.13 -0.29,0.22 -0.46,0.26 l -4,1 C 3.90,21.06 3.54,20.96 3.29,20.71 3.04,20.46 2.94,20.03 3.03,19.76 l 1,-4 C 4.07,15.58 4.16,15.42 4.29,15.29 L 14.2,5.39 Z m 2.83,1.41 c -0.39,-0.39 -1.02,-0.39 -1.41,0 l -0.99,0.99 1.56,1.62 1.02,-1.02 c 0.39,-0.39 0.39,-1.02 0,-1.41 z M 16.45,9.14 14.89,7.52 5.9,16.51 5.38,18.63 7.49,18.1 Z" />
    </symbol>
    <symbol id="ocno-i-trash">
        <path d="M 14.532444,1 C 15.489,1 16.338222,1.605946 16.640667,2.504294 L 17.245333,4.3 h 3.643556 C 21.502556,4.3 22,4.792492 22,5.4 22,6.007497 21.502556,6.499978 20.888889,6.5 l -0.0027,0.078375 v 0 L 19.922333,19.93507 C 19.797778,21.66207 18.346333,23 16.597556,23 H 7.4024889 c -1.7488,0 -3.2002667,-1.33793 -3.3248667,-3.06493 L 3.1139333,6.578375 C 3.1120333,6.552085 3.1110889,6.525949 3.1110667,6.5 2.4974333,6.499978 2,6.007497 2,5.4 2,4.792492 2.4974667,4.3 3.1111111,4.3 h 3.6436 L 7.3593222,2.504294 C 7.6618,1.605946 8.511,1 9.467511,1 Z m 4.131445,5.5 H 5.3361667 L 6.2942,19.77832 C 6.3357333,20.35406 6.8195556,20.8 7.4024889,20.8 h 9.1950671 c 0.582888,0 1.066666,-0.44594 1.108222,-1.02168 z M 9.777778,9.8 c 0.569833,0 1.039454,0.42463 1.103636,0.971714 L 10.888889,10.9 v 5.5 c 0,0.60753 -0.497445,1.1 -1.111111,1.1 -0.569823,0 -1.0394535,-0.42463 -1.1036361,-0.971714 L 8.6666667,16.4 v -5.5 c 0,-0.60753 0.4974553,-1.1 1.1111113,-1.1 z m 4.444444,0 c 0.613667,0 1.111111,0.49247 1.111111,1.1 v 5.5 c 0,0.60753 -0.497444,1.1 -1.111111,1.1 -0.613666,0 -1.111111,-0.49247 -1.111111,-1.1 v -5.5 c 0,-0.60753 0.497445,-1.1 1.111111,-1.1 z M 14.532444,3.2 H 9.467511 L 9.097144,4.3 h 5.805745 z"/>
    </symbol>
    <symbol id="ocno-i-sidebar">
        <path d="M 20.2,23 H 3.8 C 2.2,23 1,21.8 1,20.2 V 3.8 C 1,2.2 2.2,1 3.8,1 H 20.2 C 21.8,1 23,2.2 23,3.8 V 20.2 C 23,21.8 21.8,23 20.2,23 Z M 8.4,21.2 V 2.8 H 4.3 c -0.8,0 -1.3,0.6 -1.3,1.3 V 19.7 c 0,0.8 0.6,1.3 1.3,1.3 z M 19.8,2.8 H 10.2 V 21.2 h 9.7 c 0.8,0 1.4,-0.6 1.3,-1.3 V 4.2 c 0,-0.8 -0.63,-1.3 -1.3,-1.3 z"/>
    </symbol>
    <symbol id="ocno-i-sidebar-open">
        <path d="M 3.7,1 C 2.2,1 1,2.2 1,3.7 V 20.3 C 1,21.8 2.2,23 3.7,23 H 20.3 C 21.8,23 23,21.8 23,20.3 V 3.7 C 23,2.2 21.8,1 20.3,1 Z M 4.2,2.8 H 8.3 V 21.2 H 4.2 c -0.8,0 -1.4,-0.6 -1.4,-1.4 V 4.2 c 0,-0.8 0.6,-1.4 1.4,-1.4 z m 6,0 h 9.6 c 0.8,0 1.4,0.6 1.4,1.4 V 19.8 c 0,0.8 -0.6,1.4 -1.4,1.4 h -9.6 z M 4.7,8.8 3.4,10.1 5.2,12 3.4,13.8 4.7,15.1 7.8,12 Z"/>
    </symbol>
    <symbol id="ocno-i-sidebar-close">
        <path d="M 3.7 1 C 2.2 1 1 2.2 1 3.7 L 1 20.3 C 1 21.8 2.2 23 3.7 23 L 20.3 23 C 21.8 23 23 21.8 23 20.3 L 23 3.7 C 23 2.2 21.8 1 20.3 1 L 3.7 1 z M 4.2 2.8 L 8.3 2.8 L 8.3 21.2 L 4.2 21.2 C 3.4 21.2 2.8 20.6 2.8 19.8 L 2.8 4.2 C 2.8 3.4 3.4 2.8 4.2 2.8 z M 10.2 2.8 L 19.8 2.8 C 20.6 2.8 21.2 3.4 21.2 4.2 L 21.2 19.8 C 21.2 20.6 20.6 21.2 19.8 21.2 L 10.2 21.2 L 10.2 2.8 z M 6.5 8.8 L 3.4 12 L 6.5 15.1 L 7.8 13.8 L 6 12 L 7.8 10.1 L 6.5 8.8 z"/>
    </symbol>
    <symbol id="ocno-i-globus">
        <path d="M 12,0 C 5.3832001,0 0,5.3832001 0,12 0,18.6168 5.3832001,24 12,24 18.6168,24 24,18.6168 24,12 24,5.3832001 18.6168,0 12,0 Z m 0.8,8.4157334 c 1.302667,-0.063733 2.5696,-0.2824 3.7568,-0.6408 C 16.792267,8.8402668 16.942667,9.9946668 16.989334,11.2 H 12.8 Z m 0,-1.6021333 V 1.7413334 c 1.3704,0.48 2.5736,2.1629333 3.337867,4.4906667 C 15.087734,6.5525334 13.962134,6.7509334 12.8,6.8136001 Z M 11.2,1.7413334 V 6.8136001 C 10.037867,6.7509334 8.9122668,6.5528001 7.8621334,6.2322667 8.6264001,3.9042667 9.8296001,2.2213334 11.2,1.7413334 Z m 0,6.6744 V 11.2 H 7.0106668 C 7.0573334,9.9946668 7.2077334,8.8402668 7.4432001,7.7752001 8.6304001,8.1333334 9.8973335,8.3520001 11.2,8.4157334 Z M 5.4090667,11.2 h -3.7752 c 0.1506667,-1.9706666 0.852,-3.7887999 1.9514667,-5.3010666 0.7072,0.5130667 1.4909333,0.9573334 2.3354667,1.3224 C 5.6349334,8.4490668 5.4581334,9.7877335 5.4090667,11.2 Z m 0,1.6 c 0.049067,1.412267 0.2258667,2.7512 0.5117334,3.978934 C 5.0762667,17.144 4.2925334,17.588267 3.5853334,18.101334 2.4858667,16.5888 1.7845334,14.770667 1.6338667,12.8 Z m 1.6016001,0 H 11.2 v 2.784267 C 9.8973335,15.648 8.6304001,15.866667 7.4434668,16.225067 7.2077334,15.16 7.0573334,14.005334 7.0106668,12.8 Z M 11.2,17.186667 v 5.072 C 9.8296001,21.778667 8.6266668,20.095734 7.8621334,17.768 8.9122668,17.447467 10.037867,17.249334 11.2,17.186667 Z m 1.6,5.072 v -5.072 c 1.162134,0.06267 2.287734,0.2608 3.337867,0.581333 C 15.3736,20.095734 14.1704,21.778667 12.8,22.258667 Z m 0,-6.6744 V 12.8 h 4.189334 c -0.04667,1.205334 -0.197067,2.36 -0.4328,3.425067 C 15.3696,15.866667 14.102934,15.648 12.8,15.584267 Z M 18.590934,12.8 h 3.7752 c -0.150667,1.970667 -0.852,3.7888 -1.951467,5.301067 C 19.707467,17.588 18.923734,17.144 18.0792,16.778667 18.365334,15.5512 18.542134,14.212267 18.590934,12.8 Z m 0,-1.6 C 18.541867,9.7877335 18.365067,8.4490668 18.0792,7.2210668 18.923734,6.8560001 19.707467,6.4117334 20.414667,5.8986667 21.5144,7.4112001 22.215467,9.2293334 22.366134,11.2 Z M 19.376,4.6762667 c -0.531466,0.3757334 -1.1136,0.7066667 -1.736,0.9898667 -0.4256,-1.2664 -0.977333,-2.3704 -1.626133,-3.2594667 1.2672,0.532 2.407467,1.3082667 3.362133,2.2696 z M 7.9864001,2.4064 c -0.6488,0.8890667 -1.2005333,1.9933334 -1.6261334,3.2597334 -0.6226666,-0.2832 -1.2048,-0.6138667 -1.7362666,-0.9898667 0.9546666,-0.9613333 2.0949333,-1.7376 3.3624,-2.2698667 z m -3.3624,16.917334 c 0.5314666,-0.375734 1.1136,-0.706667 1.7362666,-0.989867 0.4256001,1.2664 0.9776001,2.3704 1.6261334,3.259733 -1.2674667,-0.532266 -2.4077334,-1.308533 -3.3624,-2.269866 z M 16.0136,21.5936 c 0.6488,-0.889066 1.200534,-1.993066 1.626134,-3.259466 0.6224,0.2832 1.204533,0.613866 1.736,0.989866 -0.9544,0.961067 -2.094667,1.737334 -3.362134,2.2696 z"/>
    </symbol>
    <symbol id="ocno-i-moon">
        <path d="M 13.282444,0.01892156 C 11.894234,0.10521572 10.526659,0.4297568 9.25851,0.9737852 8.7257374,1.2007764 7.7258507,1.7373009 7.4106894,1.9642921 7.3694183,1.9924315 7.2080857,2.108741 7.052381,2.2194226 6.7165842,2.4557936 6.3657797,2.7353116 6.0750059,2.9923182 5.7692244,3.2624564 5.3715209,3.6376484 5.3283738,3.6958032 5.3077382,3.7239426 5.2101883,3.8346242 5.1126384,3.9415539 2.8183393,6.4590922 1.707771,9.8564558 2.0660794,13.261323 c 0.2870218,2.737026 1.4932641,5.269572 3.4423866,7.22057 1.2475134,1.247514 2.6807468,2.16861 4.3428474,2.787677 0.7616396,0.28327 1.6227056,0.502757 2.4462516,0.619067 0.639703,0.09005 0.95674,0.110681 1.688364,0.110681 0.701609,0.0019 0.973623,-0.01501 1.519528,-0.08442 0.159456,-0.02064 0.341425,-0.04315 0.403331,-0.0469 0.06191,-0.0056 0.226991,-0.03564 0.365812,-0.06566 1.326304,-0.300153 2.057929,-0.549656 3.048435,-1.039281 0.724121,-0.358309 1.260646,-0.686602 1.87596,-1.148088 0.489626,-0.367688 0.534649,-0.418339 0.444603,-0.508385 -0.03189,-0.03189 -0.08067,-0.03752 -0.437099,-0.0469 -3.267922,-0.09567 -6.352,-1.573931 -8.526238,-4.083965 C 10.459124,14.409411 9.4592377,10.961396 9.9544912,7.5771644 10.36345,4.7744802 11.772296,2.2231746 13.93903,0.35659436 c 0.217612,-0.187596 0.215736,-0.18384408 0.215736,-0.24762672 0,-0.09754992 -0.04127,-0.11068164 -0.348929,-0.10880568 -0.153829,0.00187596 -0.388324,0.01125576 -0.523393,0.0187596 z"/>
    </symbol>
    <symbol id="ocno-i-sun">
        <path d="M 11.986621,1.0443777e-4 A 0.8563574,0.8563574 0 0 0 11.143728,0.86808301 V 3.4368983 a 0.8563574,0.8563574 0 1 0 1.712544,0 V 0.86808301 A 0.8563574,0.8563574 0 0 0 11.986621,1.0443777e-4 Z M 4.1196241,3.2646405 A 0.8563574,0.8563574 0 0 0 3.5242476,4.7346852 L 5.3404803,6.550918 A 0.8563574,0.8563574 0 1 0 6.5513022,5.3400961 L 4.7350694,3.5238634 A 0.8563574,0.8563574 0 0 0 4.1196241,3.2646405 Z m 15.7339929,0 A 0.8563574,0.8563574 0 0 0 19.264931,3.5238634 L 17.448698,5.3400961 A 0.8563574,0.8563574 0 1 0 18.65952,6.550918 L 20.475753,4.7346852 A 0.8563574,0.8563574 0 0 0 19.853617,3.2646405 Z M 12,6.0057136 A 5.9939024,5.9939024 0 0 0 6.0060978,11.999616 5.9939024,5.9939024 0 0 0 12,17.993519 5.9939024,5.9939024 0 0 0 17.993902,11.999616 5.9939024,5.9939024 0 0 0 12,6.0057136 Z M 0.86846722,11.143344 a 0.8563574,0.8563574 0 1 0 0,1.712544 H 3.4372825 a 0.8563574,0.8563574 0 1 0 0,-1.712544 z m 19.69424978,0 a 0.8563574,0.8563574 0 1 0 0,1.712544 h 2.568816 a 0.8563574,0.8563574 0 1 0 0,-1.712544 z M 5.9291671,17.189091 a 0.8563574,0.8563574 0 0 0 -0.5886868,0.259223 l -1.8162327,1.816233 a 0.8563574,0.8563574 0 1 0 1.2108218,1.210822 L 6.5513022,18.659136 A 0.8563574,0.8563574 0 0 0 5.9291671,17.189091 Z m 12.1165799,0 a 0.8563574,0.8563574 0 0 0 -0.597049,1.470045 l 1.816233,1.816233 a 0.8563574,0.8563574 0 1 0 1.210822,-1.210822 L 18.65952,17.448314 a 0.8563574,0.8563574 0 0 0 -0.613773,-0.259223 z m -6.059126,2.505264 a 0.8563574,0.8563574 0 0 0 -0.842893,0.867979 v 2.568815 a 0.8563574,0.8563574 0 1 0 1.712544,0 v -2.568815 a 0.8563574,0.8563574 0 0 0 -0.869651,-0.867979 z"/>
    </symbol>
    <symbol id="ocno-i-install">
        <path d="M 22.643368,12.954594 18.917723,3.6408646 A 1.812889,1.8129286 0 0 0 17.232899,2.5000003 h -2.859735 l 0.446466,4.7761209 h 3.172262 L 11.999842,12.243757 6.0077911,7.2761212 H 9.1800529 L 9.6265199,2.5000003 H 6.7667842 c -0.7425443,0 -1.4098942,0.4511761 -1.6848236,1.1408643 L 1.3563152,12.954594 a 4.9933753,4.9934844 0 0 0 -0.2890283,2.669458 l 0.6931979,4.158104 A 1.8140639,1.8141035 0 0 0 3.5498756,21.299 H 20.448633 c 0.887058,0 1.643701,-0.641516 1.78939,-1.516844 l 0.693198,-4.158104 a 4.9581279,4.9582362 0 0 0 -0.287853,-2.669458 z m -2.467315,5.107453 a 1.0597705,1.0597937 0 0 1 -1.046846,0.887078 H 4.8704765 A 1.0597705,1.0597937 0 0 1 3.82363,18.062047 L 3.3947872,15.48541 A 1.0597705,1.0597937 0 0 1 4.4416336,14.249375 H 19.559224 c 0.655601,0 1.154939,0.588644 1.046847,1.236035 z"/>
    </symbol>
</svg>